<svg t="1755652362171" class="icon" viewBox="0 0 1024 1024" version="1.1" xmlns="http://www.w3.org/2000/svg" p-id="4117" width="200" height="200"><path d="M486.4 51.2m38.4 0l0 0q38.4 0 38.4 38.4l0 102.4q0 38.4-38.4 38.4l0 0q-38.4 0-38.4-38.4l0-102.4q0-38.4 38.4-38.4Z" fill="#B5B9C3" p-id="4118"></path><path d="M179.2 115.2m33.255376-19.2l0 0q33.255376-19.2 52.455375 14.055376l51.2 88.681001q19.2 33.255376-14.055375 52.455375l0 0q-33.255376 19.2-52.455376-14.055375l-51.2-88.681001q-19.2-33.255376 14.055376-52.455376Z" fill="#B5B9C3" p-id="4119"></path><path d="M860.099957 115.196062m-33.255376-19.2l0 0q-33.255376-19.2-52.455375 14.055376l-51.2 88.681001q-19.2 33.255376 14.055375 52.455375l0 0q33.255376 19.2 52.455376-14.055375l51.2-88.681001q19.2-33.255376-14.055376-52.455376Z" fill="#B5B9C3" p-id="4120"></path><path d="M921.6 972.8a51.2 51.2 0 0 0 51.2-51.2V614.4l-118.9376-267.3408A51.2 51.2 0 0 0 803.9424 307.2H220.0576a51.2 51.2 0 0 0-49.92 39.8592L51.2 614.4v307.2a51.2 51.2 0 0 0 51.2 51.2h819.2z m-138.112-588.8l110.5408 230.4H588.8a76.8 76.8 0 1 1-153.6 0H129.9456L243.2 384h540.288z m110.5408 307.2L896 896H128v-204.8h250.9568A153.5488 153.5488 0 0 0 512 768c56.832 0 106.496-30.8992 133.0432-76.8h248.9856z" fill="#B5B9C3" p-id="4121"></path></svg>